<svg xmlns="http://www.w3.org/2000/svg" xmlns:xlink="http://www.w3.org/1999/xlink" width="16" height="16" preserveAspectRatio="xMidYMid meet" viewBox="0 0 16 16" style="-ms-transform: rotate(360deg); -webkit-transform: rotate(360deg); transform: rotate(360deg);"><g fill="#626262"><path fill-rule="evenodd" d="M7.854 4.646a.5.5 0 0 1 0 .708L5.207 8l2.647 2.646a.5.5 0 0 1-.708.708l-3-3a.5.5 0 0 1 0-.708l3-3a.5.5 0 0 1 .708 0z"/><path fill-rule="evenodd" d="M4.5 8a.5.5 0 0 1 .5-.5h6.5a.5.5 0 0 1 0 1H5a.5.5 0 0 1-.5-.5z"/></g><rect x="0" y="0" width="16" height="16" fill="rgba(0, 0, 0, 0)" /></svg>